<?xml version="1.0" encoding="utf-8"?>
<svg viewBox="195.3705 133.1761 139.4646 137.6144" 
width="139.465px" height="137.614px" 
preserveAspectRatio="none" 
xmlns="http://www.w3.org/2000/svg" fill="currentColor">
<g id="object-15" transform="matrix(3.463582038879395, 0, 0, 3.463582038879395, 181.9768398698693, 108.3907334266712)"><polygon points="30.7 17.256 25.3 7.156 22.7 7.156 17.3 17.256 30.7 17.256" id="object-0"/><polygon points="18.967 7.734 11.867 7.734 3.867 17.834 13.667 17.834 18.967 7.734" id="object-1"/><polygon points="44.133 17.545 36.133 7.445 29.033 7.445 34.333 17.545 44.133 17.545" id="object-2"/><polygon points="29.144 37.3 43.844 20.2 34.344 20.2 29.144 37.3" id="object-3"/><polygon points="4.256 20.2 18.856 37.3 13.656 20.2 4.256 20.2"  id="object-4"/><text style="font-family: Arial, sans-serif; font-size: 4.7px; white-space: pre;" transform="matrix(0.826568, 0, 0, 0.732833, 25.396891, -9.420501)" x="-11.997" y="43.198" id="object-5">01101101</text><text style="white-space: pre; font-family: Arial, sans-serif; font-size: 8.1px;" x="23.814" y="45.271"> </text><text style="font-family: Arial, sans-serif; font-size: 4.7px; white-space: pre;" transform="matrix(0.659799, 0, 0, 0.584978, 24.787852, -0.184378)" x="-11.997" y="43.198" id="object-6">01100001 </text><text style="font-family: Arial, sans-serif; font-size: 4.7px; white-space: pre;" transform="matrix(0.562635, 0, 0, 0.498831, 24.689766, 6.175812)" x="-11.997" y="43.198" id="object-7">01110011  </text><text style="font-family: Arial, sans-serif; font-size: 4.7px; white-space: pre;" transform="matrix(0.430163, 0, 0, 0.381382, 24.394423, 13.418686)" x="-11.997" y="43.198" id="object-8">01100001 </text><text style="font-family: Arial, sans-serif; font-size: 4.7px; white-space: pre;" transform="matrix(0.296249, 0, 0, 0.262655, 24.087061, 20.280228)" x="-11.997" y="43.198" id="object-9">00100000</text><text style="font-family: Arial, sans-serif; font-size: 4.7px; white-space: pre;" transform="matrix(0.239495, 0, 0, 0.212336, 24.048962, 23.881756)" x="-11.997" y="43.198" id="object-10">01100010 </text><text style="font-family: Arial, sans-serif; font-size: 4.7px; white-space: pre;" transform="matrix(0.189551, 0, 0, 0.168055, 23.862063, 27.132691)" x="-11.997" y="43.198" id="object-11">01111001 </text><text style="font-family: Arial, sans-serif; font-size: 4.7px; white-space: pre;" transform="matrix(0.140484, 0, 0, 0.124552, 23.497374, 30.097001)" x="-11.997" y="43.198" id="object-12">01110100 </text><text style="font-family: Arial, sans-serif; font-size: 8.1px; white-space: pre;" x="38.218" y="37.227" id="object-13"> </text><text style="font-family: Arial, sans-serif; font-size: 4.7px; white-space: pre;" transform="matrix(0.13196, 0, 0, 0.116995, 23.387011, 31.594475)" x="-11.997" y="43.198" id="object-14">01100101</text></g></svg>