<?xml version="1.0" encoding="utf-8"?>
<svg viewBox="20.566 194.4758 399.3372 112.768" width="399.337px" height="112.768px" preserveAspectRatio="none" xmlns="http://www.w3.org/2000/svg"><g id="object-3"><g fill="#83CD29" transform="matrix(0.781279, 0, 0, 0.781279, 19.896263, 194.177539)" style="" id="object-0"><path d="M471.05 51.611c-1.244 0-2.454.257-3.525.863l-33.888 19.57c-2.193 1.264-3.526 3.65-3.526 6.189v39.069c0 2.537 1.333 4.92 3.526 6.187l8.85 5.109c4.3 2.119 5.885 2.086 7.842 2.086 6.366 0 10.001-3.863 10.001-10.576V81.542c0-.545-.472-.935-1.007-.935h-4.245c-.544 0-1.007.39-1.007.935v38.566c0 2.975-3.1 5.968-8.13 3.453l-9.21-5.396c-.326-.177-.576-.49-.576-.863v-39.07c0-.37.247-.747.576-.935L470.547 57.8a.998.998 0 0 1 1.007 0l33.817 19.498c.322.194.576.553.576.936v39.069c0 .373-.188.755-.504.935l-33.889 19.498c-.29.173-.69.173-1.007 0l-8.706-5.18a.905.905 0 0 0-.863 0c-2.403 1.362-2.855 1.52-5.109 2.302-.555.194-1.398.495.288 1.44l11.368 6.69a6.995 6.995 0 0 0 3.526.936 6.949 6.949 0 0 0 3.525-.935l33.889-19.499c2.193-1.275 3.525-3.65 3.525-6.187v-39.07c0-2.538-1.332-4.92-3.525-6.187l-33.889-19.57c-1.062-.607-2.28-.864-3.525-.864z"/><path d="M480.116 79.528c-9.65 0-15.397 4.107-15.397 10.937 0 7.408 5.704 9.444 14.966 10.36 11.08 1.085 11.943 2.712 11.943 4.893 0 3.783-3.016 5.396-10.144 5.396-8.957 0-10.925-2.236-11.584-6.691-.078-.478-.447-.864-.936-.864h-4.389c-.54 0-1.007.466-1.007 1.008 0 5.703 3.102 12.447 17.916 12.447 10.723 0 16.908-4.209 16.908-11.584 0-7.31-4.996-9.273-15.398-10.648-10.51-1.391-11.512-2.072-11.512-4.533 0-2.032.85-4.75 8.634-4.75 6.954 0 9.524 1.5 10.577 6.189.092.44.48.791.935.791h4.39c.27 0 .532-.166.719-.36.184-.207.314-.44.288-.719-.68-8.074-6.064-11.872-16.909-11.872z"/></g><path d="M 232.265 194.476 C 231.968 194.476 231.677 194.554 231.421 194.7 C 230.901 195.004 230.581 195.56 230.577 196.163 L 230.577 239.166 C 230.577 239.587 230.382 239.966 230.016 240.177 C 229.651 240.39 229.201 240.39 228.836 240.177 L 221.809 236.13 C 220.765 235.526 219.48 235.526 218.436 236.13 L 190.386 252.319 C 189.337 252.924 188.7 254.088 188.7 255.299 L 188.7 287.678 C 188.7 288.887 189.338 289.994 190.386 290.6 L 218.436 306.79 C 219.479 307.395 220.766 307.395 221.809 306.79 L 249.859 290.6 C 250.904 289.999 251.548 288.884 251.546 287.678 L 251.546 206.956 C 251.544 205.721 250.879 204.583 249.803 203.976 L 233.108 194.645 C 232.846 194.498 232.555 194.473 232.265 194.476 Z M 51.821 234.894 C 51.286 234.914 50.783 235.008 50.303 235.287 L 22.252 251.476 C 21.206 252.077 20.563 253.192 20.566 254.399 L 20.622 297.853 C 20.622 298.457 20.934 299.019 21.466 299.314 C 21.985 299.626 22.633 299.626 23.152 299.314 L 39.791 289.758 C 40.845 289.131 41.534 288.043 41.534 286.834 L 41.534 266.542 C 41.534 265.331 42.17 264.219 43.22 263.618 L 50.302 259.515 C 50.815 259.217 51.397 259.062 51.989 259.064 C 52.567 259.064 53.161 259.209 53.675 259.515 L 60.758 263.618 C 61.805 264.218 62.449 265.334 62.445 266.542 L 62.445 286.834 C 62.445 288.042 63.14 289.139 64.187 289.757 L 80.826 299.314 C 81.346 299.626 81.994 299.626 82.513 299.314 C 83.035 299.011 83.357 298.455 83.357 297.852 L 83.411 254.399 C 83.419 253.192 82.774 252.075 81.725 251.476 L 53.675 235.287 C 53.201 235.008 52.696 234.915 52.158 234.894 L 51.821 234.894 Z M 303.88 235.287 C 303.294 235.287 302.72 235.435 302.194 235.737 L 274.143 251.926 C 273.098 252.528 272.454 253.642 272.457 254.849 L 272.457 287.228 C 272.457 288.445 273.143 289.548 274.199 290.152 L 302.025 306.003 C 303.052 306.589 304.307 306.633 305.341 306.058 L 322.205 296.671 C 322.741 296.374 323.102 295.819 323.105 295.209 C 323.11 294.605 322.789 294.045 322.262 293.748 L 294.043 277.558 C 293.515 277.257 293.143 276.647 293.143 276.04 L 293.143 265.922 C 293.143 265.317 293.519 264.762 294.043 264.461 L 302.812 259.401 C 303.333 259.099 303.977 259.099 304.498 259.401 L 313.267 264.461 C 313.791 264.761 314.113 265.319 314.111 265.922 L 314.111 273.904 C 314.109 274.507 314.431 275.064 314.954 275.365 C 315.48 275.669 316.115 275.67 316.639 275.365 L 333.448 265.586 C 334.492 264.982 335.135 263.868 335.135 262.663 L 335.135 254.85 C 335.135 253.642 334.494 252.533 333.448 251.926 L 305.566 235.737 C 305.054 235.439 304.472 235.285 303.88 235.287 Z M 220.01 259.459 C 220.157 259.459 220.328 259.494 220.46 259.571 L 230.072 265.136 C 230.334 265.286 230.522 265.565 230.522 265.866 L 230.522 276.996 C 230.522 277.298 230.335 277.577 230.072 277.727 L 220.46 283.293 C 220.198 283.441 219.878 283.441 219.617 283.293 L 210.004 277.727 C 209.743 277.576 209.554 277.298 209.554 276.996 L 209.554 265.866 C 209.554 265.564 209.743 265.287 210.004 265.136 L 219.617 259.571 C 219.735 259.497 219.872 259.459 220.01 259.46 L 220.01 259.459 Z" fill="#404137" style="" id="object-1"/><path d="M 136.083 235.118 C 135.499 235.118 134.921 235.266 134.398 235.567 L 106.347 251.701 C 105.298 252.305 104.66 253.471 104.66 254.68 L 104.66 287.058 C 104.66 288.269 105.299 289.376 106.347 289.982 L 134.398 306.171 C 135.441 306.776 136.728 306.776 137.77 306.171 L 165.821 289.982 C 166.866 289.38 167.509 288.265 167.506 287.058 L 167.506 254.68 C 167.506 253.469 166.869 252.305 165.821 251.701 L 137.77 235.567 C 137.258 235.272 136.676 235.117 136.083 235.118 Z M 303.824 264.012 C 303.712 264.012 303.587 264.012 303.487 264.068 L 298.09 267.215 C 297.886 267.329 297.757 267.544 297.753 267.778 L 297.753 273.961 C 297.753 274.194 297.888 274.408 298.09 274.524 L 303.487 277.615 C 303.689 277.733 303.905 277.733 304.105 277.615 L 309.501 274.523 C 309.705 274.408 309.834 274.195 309.839 273.961 L 309.839 267.777 C 309.834 267.544 309.705 267.33 309.501 267.215 L 304.105 264.068 C 304.005 264.008 303.936 264.012 303.824 264.012 Z" fill="#83CD29" style="" id="object-2"/></g></svg>