<?xml version="1.0" encoding="utf-8"?>
<svg viewBox="10.9252 213.0316 456.6866 66.1157" width="456.687px" height="66.1157px" preserveAspectRatio="none" xmlns="http://www.w3.org/2000/svg"><g transform="matrix(1.5320088863372803, 0, 0, 1.5320088863372803, -634.5474948070569, -164.26201111468686)" style="" id="object-0"><path d="M 495.243 267.65 L 483.639 267.65 L 483.639 255.98 L 495.873 255.98 C 500.351 255.98 502.59 257.955 502.59 261.906 C 502.59 265.736 500.14 267.652 495.243 267.652 M 503.583 255.844 C 501.983 254.42 499.768 253.708 496.909 253.708 L 480.291 253.8 L 480.291 281.72 L 483.639 281.72 L 483.609 269.834 L 495.975 269.834 C 499.075 269.834 501.517 269.122 503.298 267.698 C 505.079 266.274 505.97 264.298 505.97 261.771 C 505.97 259.244 505.175 257.269 503.585 255.844 L 503.583 255.844 Z M 525.255 275.857 C 524.935 276.771 524.388 277.588 523.666 278.232 C 522.166 279.696 519.878 280.427 516.8 280.427 C 514.02 280.427 511.888 279.727 510.4 278.293 C 508.912 276.859 508.167 274.966 508.167 272.58 C 508.167 271.338 508.362 270.235 508.751 269.273 C 509.14 268.311 509.705 267.499 510.445 266.837 C 511.985 265.434 514.103 264.732 516.801 264.732 C 522.777 264.732 525.766 267.348 525.766 272.58 C 525.766 273.823 525.596 274.915 525.266 275.857 M 525.873 265.557 C 523.833 263.697 520.813 262.757 516.811 262.757 C 513.031 262.757 510.109 263.707 508.049 265.607 C 506.189 267.327 505.249 269.647 505.249 272.569 C 505.249 275.469 506.209 277.809 508.129 279.589 C 509.189 280.549 510.424 281.245 511.835 281.675 C 513.246 282.105 514.901 282.32 516.801 282.32 C 520.781 282.32 523.801 281.4 525.893 279.56 C 527.753 277.88 528.693 275.56 528.693 272.568 C 528.693 269.568 527.753 267.228 525.873 265.546 L 525.873 265.557 Z M 551.191 276.664 C 551.191 280.422 547.824 282.301 541.091 282.301 C 539.033 282.301 537.299 282.171 535.891 281.909 C 534.483 281.647 533.338 281.214 532.459 280.611 C 531.781 280.152 531.225 279.534 530.84 278.811 C 530.44 278.071 530.18 277.141 530.06 276.011 L 533.193 275.981 C 533.193 277.461 533.741 278.549 534.838 279.249 C 536.015 280.089 538.098 280.509 541.091 280.509 C 545.797 280.509 548.151 279.329 548.151 276.971 C 548.151 275.591 547.351 274.643 545.783 274.121 C 545.463 274.021 543.56 273.756 540.083 273.327 C 536.606 272.898 534.423 272.512 533.565 272.172 C 531.707 271.432 530.778 270.102 530.778 268.184 C 530.778 266.304 531.608 264.904 533.278 263.986 C 534.098 263.606 535.123 263.312 536.354 263.101 C 537.585 262.89 539.01 262.786 540.63 262.786 C 547.112 262.786 550.353 264.82 550.353 268.886 L 547.373 268.886 C 547.373 266.026 545.093 264.586 540.538 264.586 C 538.22 264.586 536.491 264.886 535.352 265.456 C 534.213 266.026 533.644 266.926 533.644 268.126 C 533.644 269.246 534.414 270.056 535.952 270.556 C 536.852 270.816 538.92 271.116 542.158 271.456 C 545.056 271.716 547.045 272.086 548.124 272.556 C 550.184 273.356 551.212 274.716 551.212 276.633 L 551.191 276.664 Z M 563.497 281.757 L 562.222 281.937 L 561.427 281.997 C 559.387 281.997 557.927 281.702 557.014 281.11 C 556.101 280.518 555.661 279.483 555.661 278.01 L 555.661 265.255 L 551.955 265.255 L 551.955 263.381 L 555.642 263.381 L 555.672 257.361 L 558.528 257.361 L 558.528 263.381 L 563.502 263.381 L 563.502 265.285 L 558.528 265.255 L 558.528 277.652 C 558.528 278.575 558.773 279.212 559.263 279.552 C 559.753 279.892 560.627 280.078 561.887 280.078 C 562.067 280.098 562.267 280.092 562.487 280.058 C 562.821 279.999 563.151 279.924 563.477 279.832 L 563.507 281.732 L 563.497 281.757 Z M 583.252 277.527 C 582.472 278.167 581.584 278.655 580.585 278.997 C 579.586 279.339 578.437 279.497 577.139 279.497 C 571.165 279.497 568.179 277.03 568.179 272.097 C 568.179 269.8 568.943 268.002 570.472 266.703 C 572.001 265.404 574.152 264.755 576.93 264.755 C 579.727 264.755 581.85 265.41 583.298 266.718 C 584.746 268.026 585.471 269.78 585.471 271.978 C 585.471 274.375 584.731 276.223 583.253 277.521 M 588.328 263.386 L 585.472 263.386 L 585.442 266.536 C 584.182 265.256 583.282 264.449 582.742 264.109 C 581.142 263.229 579.074 262.791 576.535 262.791 C 572.817 262.791 569.977 263.641 568.019 265.339 C 566.159 266.899 565.231 269.156 565.231 272.113 C 565.231 273.573 565.466 274.875 565.936 276.013 C 566.406 277.151 567.092 278.136 567.993 278.935 C 569.955 280.573 572.728 281.393 576.313 281.393 C 580.617 281.393 583.67 280.216 585.473 277.861 L 585.473 281.121 C 585.473 283.201 584.818 284.809 583.509 285.949 C 582.2 287.089 580.046 287.649 577.047 287.649 C 574.227 287.649 572.219 287.249 571.02 286.485 C 570.12 285.888 569.5 284.853 569.16 283.38 L 566.22 283.38 C 566.54 285.437 567.42 286.925 568.82 287.843 C 570.46 288.901 573.22 289.43 577.12 289.43 C 584.58 289.43 588.32 286.657 588.32 281.11 L 588.32 263.394 L 588.328 263.386 Z M 603.778 265.239 C 602.918 265.099 602.12 265.039 601.382 265.039 C 596.687 265.039 594.34 267.614 594.34 272.762 L 594.34 281.716 L 591.514 281.716 L 591.484 263.394 L 594.341 263.422 L 594.341 266.692 L 594.491 266.692 C 594.971 265.404 595.731 264.427 596.769 263.762 C 597.907 263.118 599.605 262.796 601.863 262.796 L 603.78 262.796 L 603.78 265.256 L 603.778 265.239 Z M 606.435 271.397 C 606.795 269.315 607.605 267.703 608.862 266.561 C 609.682 265.901 610.612 265.404 611.65 265.074 C 612.688 264.744 613.85 264.578 615.158 264.578 C 617.696 264.578 619.758 265.274 621.378 266.666 C 622.998 268.058 623.79 269.636 623.79 271.396 L 606.435 271.396 M 624.068 265.744 C 623.068 264.741 621.828 264 620.348 263.518 C 618.868 263.036 617.148 262.796 615.148 262.796 C 611.448 262.796 608.578 263.656 606.536 265.376 C 604.494 267.096 603.476 269.436 603.476 272.398 C 603.476 275.36 604.456 277.698 606.416 279.448 C 608.536 281.368 611.516 282.328 615.384 282.328 C 616.924 282.328 618.347 282.153 619.657 281.805 C 620.967 281.457 622.112 280.963 623.091 280.325 C 624.811 279.09 625.899 277.565 626.361 275.755 L 623.273 275.755 C 622.213 278.888 619.576 280.455 615.359 280.455 C 612.381 280.455 610.092 279.689 608.494 278.157 C 607.114 276.844 606.426 275.143 606.426 273.053 L 626.789 273.053 C 626.789 269.945 625.889 267.508 624.059 265.753 L 624.068 265.744 Z" fill="#231f20"/><path d="M 656.975 274.233 C 656.975 279.673 652.588 282.393 643.813 282.393 C 638.556 282.393 634.718 281.456 632.3 279.593 C 630.32 278.053 629.332 275.705 629.332 272.545 L 632.864 272.545 C 632.864 277.623 636.514 280.162 643.812 280.162 C 647.312 280.162 649.842 279.642 651.412 278.604 C 652.732 277.686 653.392 276.247 653.392 274.29 C 653.392 272.352 652.492 270.994 650.692 270.214 C 649.672 269.794 647.192 269.264 643.222 268.626 C 638.242 267.866 635.014 267.108 633.534 266.349 C 631.394 265.229 630.334 263.332 630.334 260.655 C 630.334 258.158 631.234 256.3 633.064 255.081 C 635.024 253.743 638.384 253.073 643.142 253.073 C 651.742 253.073 656.042 255.929 656.042 261.641 L 652.479 261.641 C 652.479 257.361 649.286 255.223 642.901 255.223 C 639.698 255.223 637.356 255.653 635.875 256.523 C 634.473 257.443 633.775 258.793 633.775 260.573 C 633.775 262.433 634.675 263.743 636.475 264.503 C 637.435 264.943 640.255 265.553 644.935 266.333 C 649.335 266.993 652.305 267.763 653.835 268.633 C 655.935 269.713 656.985 271.583 656.985 274.233 L 656.975 274.233 Z M 685.675 277.009 C 684.355 278.066 682.863 278.859 681.202 279.389 C 679.541 279.919 677.679 280.182 675.618 280.182 C 671.414 280.182 668.018 279.049 665.424 276.784 C 662.83 274.519 661.537 271.5 661.537 267.727 C 661.537 263.795 662.822 260.731 665.394 258.535 C 667.966 256.339 671.374 255.242 675.617 255.242 C 679.92 255.242 683.303 256.39 685.765 258.685 C 687.065 259.805 688.025 261.111 688.647 262.608 C 689.269 264.105 689.577 265.812 689.577 267.728 C 689.577 271.64 688.275 274.734 685.673 277.008 M 687.551 278.86 C 689.391 277.562 690.753 275.99 691.634 274.142 C 692.515 272.294 692.956 270.162 692.956 267.744 C 692.956 263.409 691.516 259.944 688.636 257.316 C 687.096 255.878 685.236 254.809 683.056 254.11 C 680.876 253.411 678.386 253.06 675.586 253.06 C 670.146 253.06 665.886 254.38 662.786 257.015 C 659.686 259.65 658.136 263.227 658.136 267.742 C 658.136 272.136 659.7 275.682 662.829 278.378 C 665.958 281.074 670.232 282.423 675.649 282.423 C 677.769 282.423 679.617 282.28 681.196 281.993 C 682.775 281.706 684.116 281.266 685.216 280.673 L 690.434 284.29 L 692.614 282.288 L 687.561 278.861 L 687.551 278.86 Z M 719.401 281.717 L 695.255 281.717 L 695.255 253.757 L 698.573 253.697 L 698.573 279.374 L 719.421 279.374 L 719.391 281.708 L 719.401 281.717 Z" fill="#367faf"/><path d="M 457.392 277.024 C 457.728 274.654 457.627 274.306 459.71 274.69 L 460.24 274.73 C 461.842 274.792 463.937 274.512 465.168 274.027 C 467.818 272.985 469.388 271.245 466.776 271.702 C 460.816 272.744 460.406 271.032 460.406 271.032 C 466.699 263.117 469.33 253.069 467.06 250.609 C 460.855 243.902 450.145 247.074 449.955 247.157 L 449.898 247.167 C 448.72 246.96 447.402 246.837 445.922 246.817 C 443.225 246.779 441.179 247.417 439.626 248.414 C 439.626 248.414 420.5 241.734 421.39 256.814 C 421.58 260.022 426.815 281.087 433.058 274.724 C 435.34 272.397 437.546 270.43 437.546 270.43 C 438.696 271.075 440.013 271.359 441.327 271.248 L 441.433 271.171 C 441.4 271.461 441.413 271.741 441.476 272.077 C 439.868 273.6 440.34 273.867 437.124 274.429 C 433.871 274.997 435.782 276.009 437.03 276.274 C 438.543 276.594 442.043 277.049 444.408 274.244 L 444.314 274.564 C 444.944 274.992 444.902 277.639 444.992 279.531 C 445.082 281.423 445.232 283.188 445.686 284.229 C 446.14 285.27 446.678 287.949 450.904 287.183 C 454.436 286.541 457.137 285.618 457.384 277.028" fill="#231f20" stroke="#231f20" stroke-width="4.108"/><path d="M 466.775 271.701 C 460.815 272.743 460.405 271.031 460.405 271.031 C 466.698 263.115 469.329 253.067 467.059 250.608 C 460.865 243.901 450.145 247.074 449.955 247.157 L 449.897 247.167 C 448.719 246.96 447.401 246.837 445.92 246.817 C 443.223 246.78 441.177 247.417 439.625 248.414 C 439.625 248.414 420.498 241.734 421.388 256.814 C 421.578 260.022 426.812 281.088 433.056 274.724 C 435.338 272.397 437.543 270.43 437.543 270.43 C 438.693 271.075 440.01 271.359 441.324 271.248 L 441.431 271.171 C 441.398 271.461 441.413 271.741 441.474 272.077 C 439.866 273.6 440.338 273.867 437.124 274.429 C 433.87 274.997 435.782 276.009 437.03 276.274 C 438.543 276.594 442.043 277.049 444.408 274.244 L 444.314 274.564 C 444.944 274.992 445.387 277.347 445.314 279.484 C 445.241 281.621 445.19 283.084 445.687 284.23 C 446.184 285.376 446.679 287.95 450.907 287.184 C 454.439 286.542 456.27 284.88 456.524 282.106 C 456.704 280.134 457.114 280.426 457.139 278.663 L 457.467 277.829 C 457.845 275.156 457.527 274.294 459.703 274.695 L 460.233 274.735 C 461.835 274.797 463.931 274.517 465.161 274.032 C 467.811 272.99 469.381 271.25 466.769 271.707 L 466.775 271.701 Z" fill="#417ba2"/><g fill="none" class="C B" style="stroke: rgb(255, 255, 255); stroke-width: 1.369px;" transform="matrix(1, 0, 0, 1, 409.155157, 237.45734)"><g class="D" style="stroke-linecap: round;"><path d="M35.518 35.777c-.164 4.973.04 9.982.615 11.2s1.804 3.585 6.032 2.817c3.532-.642 4.817-1.884 5.374-4.626.4-2.017 1.203-7.62 1.304-8.767M30.45 10.843S11.3 4.213 12.2 19.3c.2 3.208 5.424 24.274 11.67 17.9 2.282-2.327 4.345-4.152 4.345-4.152M40.8 9.633c-.663.176 10.647-3.504 17.074 3.457 2.27 2.46-.36 12.508-6.654 20.424" class="E" style="stroke-linejoin: round;"/><path d="M51.21 33.513s.4 1.71 6.37.668c2.612-.457 1.04 1.283-1.61 2.326-2.174.855-7.048 1.074-7.127-.107-.205-3.05 2.565-2.123 2.365-2.887-.18-.688-1.42-1.363-2.24-3.047-.715-1.47-9.81-12.742 2.522-11.068.452-.08-3.217-9.944-14.76-10.104s-11.16 12.03-11.16 12.03" stroke-linejoin="bevel"/></g><g class="E" style="stroke-linejoin: round;"><path d="M32.288 34.556c-1.61 1.523-1.136 1.79-4.352 2.352-3.254.57-1.342 1.58-.094 1.845 1.513.32 5.013.775 7.378-2.032.72-.855-.004-2.22-.993-2.566-.478-.168-1.117-.378-1.94.4z"/><path d="M32.183 34.53c-.162-.896.347-1.96.893-3.208.82-1.87 2.712-3.742 1.2-9.677-1.128-4.423-8.697-.92-8.7-.32s.342 3.04-.127 5.88c-.612 3.708 2.783 6.843 6.692 6.523" class="D" style="stroke-linecap: round; stroke-linejoin: round;"/></g></g><g fill="#fff" class="C" style="stroke: rgb(255, 255, 255);" transform="matrix(1, 0, 0, 1, 409.155157, 237.45734)"><path d="M30.382 21.233c-.034.205.443.75 1.064.824s1.15-.354 1.185-.558-.442-.43-1.064-.504-1.152.034-1.185.238z" stroke-width=".456"/><path d="M49.273 20.816c.034.205-.442.75-1.064.824s-1.152-.354-1.186-.56.443-.43 1.064-.504 1.15.033 1.185.238z" stroke-width=".228"/></g><path d="M 460.648 256.855 C 460.75 258.462 460.24 259.555 460.175 261.267 C 460.08 263.753 461.573 266.597 459.323 269.447" fill="none" class="B C D E" style="stroke: rgb(255, 255, 255); stroke-linecap: round; stroke-linejoin: round; stroke-width: 1.369px;"/></g></svg>