<?xml version="1.0" encoding="utf-8"?>
<svg viewBox="74.4813 226.9628 361.963 65.069" width="361.963px" height="65.069px" xmlns="http://www.w3.org/2000/svg"><g id="object-1" transform="matrix(1, 0, 0, 1, 47.0678145746561, -35.61364417692488)"><g fill="#91e0ef" transform="matrix(4.952754, 0, 0, 4.952754, -553.677498, 199.445117)" id="object-0" style=""><path d="M 140.911 24.74 L 138.751 21.62 C 135.367 20.058 135.22 24.909 135.978 25.259 L 133.775 24.74 L 133.775 13.54 L 138.623 13.54 C 139.615 13.54 140.474 13.705 141.199 14.036 C 141.935 14.366 142.501 14.836 142.895 15.444 C 143.29 16.052 143.487 16.772 143.487 17.604 C 143.487 18.436 143.285 19.156 142.879 19.764 C 142.485 20.361 141.919 20.82 141.183 21.14 L 143.695 24.74 L 140.911 24.74 Z M 140.863 17.604 C 140.863 16.974 140.661 16.494 140.255 16.164 C 139.85 15.823 139.258 15.652 138.479 15.652 L 136.367 15.652 L 136.367 19.556 L 138.479 19.556 C 139.258 19.556 139.85 19.386 140.255 19.044 C 140.661 18.703 140.863 18.223 140.863 17.604 Z M 154.693 22.66 L 154.693 24.74 L 146.021 24.74 L 146.021 13.54 L 154.485 13.54 L 154.485 15.62 L 148.597 15.62 L 148.597 18.052 L 153.797 18.052 L 153.797 20.068 L 148.597 20.068 L 148.597 22.66 L 154.693 22.66 Z M 164.611 22.34 L 159.411 22.34 L 158.419 24.74 L 155.763 24.74 L 160.755 13.54 L 163.315 13.54 L 168.323 24.74 L 165.603 24.74 L 164.611 22.34 Z M 163.795 20.372 L 162.019 16.084 L 160.243 20.372 L 163.795 20.372 Z M 175.169 24.932 C 174.028 24.932 172.993 24.687 172.065 24.196 C 171.169 23.714 170.417 23.002 169.889 22.132 C 169.366 21.247 169.105 20.249 169.105 19.14 C 169.105 18.031 169.366 17.039 169.889 16.164 C 170.411 15.289 171.164 14.575 172.065 14.1 C 172.993 13.599 174.033 13.348 175.185 13.348 C 176.156 13.348 177.03 13.518 177.809 13.86 C 178.578 14.186 179.258 14.691 179.793 15.332 L 178.129 16.868 C 177.372 15.993 176.433 15.556 175.313 15.556 C 174.62 15.556 174.001 15.711 173.457 16.02 C 172.92 16.312 172.476 16.75 172.177 17.284 C 171.878 17.828 171.729 18.447 171.729 19.14 C 171.729 19.833 171.878 20.452 172.177 20.996 C 172.486 21.54 172.913 21.966 173.457 22.276 C 174.001 22.575 174.62 22.724 175.313 22.724 C 176.433 22.724 177.372 22.281 178.129 21.396 L 179.793 22.932 C 179.26 23.582 178.598 24.079 177.809 24.42 C 177.02 24.761 176.14 24.932 175.169 24.932 Z M 184.234 15.652 L 180.65 15.652 L 180.65 13.54 L 190.41 13.54 L 190.41 15.652 L 186.826 15.652 L 186.826 24.74 L 184.234 24.74 L 184.234 15.652 Z" style="fill: rgb(0, 0, 0);"/></g><g fill="#91e0ef" transform="matrix(4.128312, 0, 0, 4.128312, -505.720924, 238.644581)" id="g-1" style=""><path d="M 143.836 10.915 C 143.625 10.845 143.45 10.775 143.274 10.739 C 143.274 10.599 143.309 10.458 143.344 10.317 C 143.766 8.243 143.485 6.555 142.536 5.993 C 141.621 5.466 140.11 6.028 138.563 7.364 C 138.422 7.47 138.282 7.61 138.141 7.751 C 138.036 7.645 137.93 7.575 137.86 7.47 C 136.243 6.063 134.625 5.466 133.676 6.028 C 132.762 6.555 132.481 8.138 132.868 10.141 C 132.903 10.317 132.938 10.528 133.008 10.704 C 132.762 10.774 132.551 10.844 132.34 10.914 C 130.477 11.583 129.141 12.602 129.141 13.657 C 129.141 14.747 130.547 15.872 132.516 16.54 C 132.657 16.575 132.832 16.645 132.973 16.68 C 132.938 16.891 132.903 17.102 132.832 17.313 C 132.481 19.247 132.762 20.793 133.676 21.321 C 134.625 21.884 136.243 21.321 137.789 19.95 C 137.895 19.845 138.036 19.739 138.141 19.634 C 138.317 19.774 138.457 19.914 138.633 20.055 C 140.145 21.356 141.621 21.884 142.536 21.356 C 143.485 20.794 143.801 19.141 143.414 17.102 C 143.379 16.962 143.344 16.786 143.309 16.645 L 143.625 16.54 C 145.664 15.872 147.141 14.782 147.141 13.657 C 147.141 12.602 145.735 11.547 143.836 10.915 Z M 139.055 7.927 C 140.391 6.767 141.586 6.344 142.149 6.661 C 142.746 6.977 142.993 8.384 142.606 10.176 C 142.571 10.317 142.571 10.423 142.536 10.528 C 141.747 10.359 140.949 10.242 140.145 10.176 C 139.692 9.514 139.199 8.88 138.668 8.278 C 138.809 8.173 138.914 8.032 139.055 7.926 L 139.055 7.927 Z M 135.012 15.485 C 135.188 15.801 135.364 16.083 135.575 16.399 C 135.012 16.329 134.45 16.259 133.922 16.118 C 134.098 15.626 134.274 15.098 134.485 14.571 C 134.661 14.887 134.836 15.169 135.012 15.485 Z M 133.922 11.266 C 134.45 11.126 134.977 11.056 135.539 10.986 C 135.364 11.266 135.188 11.583 135.012 11.864 C 134.836 12.18 134.661 12.462 134.485 12.778 C 134.274 12.251 134.098 11.758 133.922 11.266 Z M 134.907 13.692 C 135.118 13.2 135.399 12.708 135.645 12.251 C 135.926 11.794 136.207 11.337 136.524 10.88 C 137.051 10.845 137.579 10.81 138.141 10.81 C 138.668 10.81 139.231 10.845 139.723 10.88 C 140.039 11.337 140.321 11.794 140.602 12.25 C 140.848 12.708 141.129 13.165 141.34 13.657 C 141.129 14.149 140.883 14.641 140.602 15.098 L 139.758 16.469 C 139.231 16.505 138.668 16.539 138.141 16.539 C 137.579 16.539 137.051 16.505 136.524 16.469 C 136.207 16.012 135.926 15.555 135.645 15.099 C 135.399 14.641 135.153 14.149 134.907 13.692 Z M 141.235 15.485 C 141.446 15.169 141.586 14.852 141.762 14.535 C 141.973 15.063 142.184 15.555 142.36 16.083 C 141.797 16.223 141.27 16.329 140.707 16.364 C 140.883 16.083 141.059 15.766 141.235 15.485 Z M 141.762 12.778 C 141.586 12.462 141.411 12.18 141.235 11.864 C 141.059 11.583 140.883 11.266 140.707 10.985 C 141.27 11.055 141.832 11.161 142.325 11.266 C 142.149 11.794 141.973 12.286 141.762 12.778 Z M 138.141 8.841 C 138.493 9.227 138.844 9.649 139.161 10.106 C 138.47 10.071 137.777 10.071 137.086 10.106 C 137.42 9.67 137.772 9.248 138.141 8.841 Z M 134.063 6.661 C 134.661 6.344 135.961 6.837 137.332 8.032 C 137.438 8.137 137.508 8.208 137.614 8.278 C 137.061 8.87 136.556 9.505 136.102 10.176 C 135.293 10.246 134.52 10.352 133.746 10.528 C 133.679 10.346 133.632 10.158 133.606 9.966 C 133.289 8.278 133.5 7.012 134.063 6.661 Z M 133.184 15.942 C 133.039 15.911 132.897 15.864 132.762 15.802 C 132.024 15.555 131.145 15.204 130.547 14.712 C 130.193 14.463 129.953 14.083 129.879 13.657 C 129.879 13.024 131.004 12.18 132.586 11.617 C 132.797 11.547 133.008 11.512 133.219 11.442 C 133.43 12.216 133.746 12.954 134.063 13.692 C 133.711 14.395 133.43 15.169 133.184 15.942 Z M 137.297 19.387 C 136.709 19.915 136.03 20.331 135.293 20.617 C 134.907 20.829 134.485 20.829 134.063 20.688 C 133.5 20.337 133.289 19.106 133.606 17.454 C 133.641 17.243 133.676 17.032 133.711 16.856 C 134.52 17.032 135.293 17.137 136.102 17.208 C 136.576 17.853 137.08 18.475 137.614 19.071 L 137.297 19.387 Z M 138.141 18.544 C 137.764 18.132 137.412 17.697 137.086 17.243 C 137.438 17.278 137.789 17.278 138.141 17.278 C 138.493 17.278 138.844 17.278 139.196 17.243 C 138.874 17.7 138.522 18.134 138.141 18.543 L 138.141 18.544 Z M 142.746 19.598 C 142.705 20.02 142.504 20.41 142.184 20.688 C 141.621 21.005 140.426 20.583 139.125 19.493 C 138.981 19.343 138.828 19.203 138.668 19.071 C 139.22 18.491 139.726 17.868 140.18 17.208 C 140.989 17.138 141.762 16.997 142.571 16.821 L 142.676 17.243 C 142.817 18.016 142.852 18.825 142.746 19.598 Z M 143.379 15.801 C 143.274 15.837 143.203 15.871 143.098 15.907 C 142.845 15.137 142.54 14.385 142.184 13.657 C 142.534 12.943 142.828 12.202 143.063 11.442 C 143.239 11.512 143.414 11.548 143.59 11.618 C 145.207 12.18 146.368 13.024 146.368 13.657 C 146.368 14.325 145.137 15.239 143.379 15.801 Z M 138.141 15.274 C 139.02 15.274 139.723 14.571 139.723 13.657 C 139.723 12.778 139.02 12.075 138.141 12.075 C 137.227 12.075 136.524 12.778 136.524 13.657 C 136.524 14.571 137.227 15.274 138.141 15.274 Z" style="fill: rgb(0, 0, 0);"/></g></g></svg>