<?xml version="1.0" encoding="utf-8"?>
<svg viewBox="19.594 235.637 377.691 90.4268" width="377.691px" height="90.4268px" xmlns="http://www.w3.org/2000/svg"><g id="object-10"><path class="st0" d="M 349.28 256.043 C 351.777 251.617 355.862 246.851 357.338 245.375 C 364.147 248.212 370.502 254 369.595 255.476 C 366.984 259.788 363.012 264.668 361.536 266.144 C 354.727 263.306 348.372 257.631 349.28 256.043 Z M 397.285 275.563 C 396.49 279.421 391.724 283.734 389.681 284.415 C 387.978 280.783 386.05 278.627 384.233 278.627 C 381.964 278.627 381.851 280.216 381.851 282.259 C 381.851 285.89 384.461 293.834 384.461 302.118 C 384.461 311.197 378.106 317.893 368.346 317.893 C 359.409 317.893 354.47 312.035 352.267 302.675 C 346.429 313.137 337.893 317.893 331.349 317.893 C 321.12 317.893 318.713 310.332 318.956 302.664 C 314.845 309.928 306.934 317.893 299.346 317.893 C 291.601 317.893 288.865 311.151 289.493 303.301 C 284.852 311.944 276.457 317.893 268.364 317.893 C 259.583 317.893 255.236 310.918 256.643 302.27 C 250.735 309.532 239.737 317.893 228.303 317.893 C 215.268 317.893 209.592 310.863 208.92 302.054 C 202.628 312.138 194.147 318.233 184.044 318.233 C 169.461 318.233 164.245 305.266 163.486 294.658 C 158.082 301.896 152.005 309.404 144.551 317.779 C 143.757 318.574 143.076 319.028 142.281 319.028 C 139.671 319.028 134.338 307.452 133.997 303.14 C 137.024 298.442 161.749 271.76 172.054 260.268 C 165.093 262.368 157.915 266.558 148.864 273.067 C 147.275 274.201 142.849 263.873 142.962 255.93 C 153.403 248.212 169.29 243.333 182.115 243.333 C 200.046 243.333 210.373 253.319 210.373 267.165 C 210.373 278.74 200.728 291.451 186.654 291.905 C 179.337 292.095 174.648 287.987 172.25 282.915 C 172.536 290.76 176.614 300.416 187.562 300.416 C 200.273 300.416 205.947 292.245 215.48 280.329 C 222.743 271.364 231.141 263.42 243.397 263.42 C 250.888 263.42 255.995 268.072 255.995 275.109 C 255.995 283.62 246.008 295.423 232.049 295.423 C 229.665 295.423 227.492 295.109 225.657 294.488 C 225.612 294.846 225.58 295.198 225.58 295.537 C 225.58 299.508 227.056 301.891 233.524 301.891 C 243.057 301.891 252.023 296.218 262.917 282.939 C 273.585 269.888 281.643 264.214 290.154 264.214 C 295.9 264.214 300.26 267.328 302.182 272.573 C 313.589 256.098 323.266 244.424 331.462 236.637 C 339.521 240.041 345.308 246.737 343.72 248.099 C 337.705 253.546 317.617 275.449 309.674 288.5 C 307.63 291.905 305.702 295.65 305.702 297.465 C 305.702 299.168 306.723 299.735 307.858 299.735 C 315.348 299.735 333.165 275.449 343.265 264.781 C 349.621 267.392 356.089 272.953 354.5 274.882 C 346.102 284.869 339.747 293.04 339.747 297.692 C 339.747 298.941 340.202 299.735 341.903 299.735 C 345.081 299.735 348.032 296.899 352.912 290.884 C 353.933 289.635 355.182 289.635 355.976 291.565 C 358.132 296.785 361.309 299.622 363.806 299.622 C 366.757 299.622 368.233 297.012 368.233 293.04 C 368.233 288.273 367.211 282.145 367.211 279.421 C 367.211 270.229 374.021 264.895 382.532 264.895 C 388.887 264.895 394.561 267.959 397.285 275.563 Z M 187.493 259.009 C 183.671 264.983 180.113 270.564 176.52 276.005 C 178.473 277.102 180.942 277.946 184.158 277.946 C 190.173 277.946 196.755 274.655 196.755 267.959 C 196.755 263.895 194.233 260.149 187.493 259.009 Z M 227.383 289.485 C 228.577 289.945 229.977 290.203 231.482 290.203 C 239.539 290.203 244.986 284.074 244.986 279.989 C 244.986 278.174 243.851 276.925 242.036 276.925 C 237.483 276.925 230.615 283.314 227.383 289.485 Z M 294.92 281.01 C 294.92 278.74 293.672 277.378 291.629 277.378 C 284.934 277.378 274.833 290.089 274.833 296.444 C 274.833 298.487 275.968 299.849 278.351 299.849 C 285.728 299.849 294.92 286.458 294.92 281.01 Z" style="fill: rgb(255, 68, 56);" id="object-0"/><g><path d="M 121.349 305.285 C 115.697 308.231 86.419 320.269 80.186 323.518 C 73.954 326.768 70.49 326.737 65.568 324.384 C 60.643 322.03 29.486 309.444 23.874 306.762 C 21.07 305.421 19.594 304.289 19.594 303.22 L 19.594 292.515 C 19.594 292.515 60.156 283.685 66.705 281.336 C 73.253 278.987 75.525 278.902 81.096 280.943 C 86.669 282.985 119.991 288.997 125.498 291.014 L 125.496 301.567 C 125.497 302.625 124.226 303.786 121.349 305.285" style="fill: rgb(255, 66, 53);" id="object-1"/><path d="M 121.347 294.644 C 115.696 297.589 86.418 309.626 80.185 312.875 C 73.953 316.126 70.49 316.095 65.568 313.741 C 60.643 311.389 29.487 298.801 23.875 296.12 C 18.264 293.437 18.145 291.591 23.659 289.433 C 29.171 287.273 60.156 275.117 66.705 272.767 C 73.253 270.419 75.525 270.333 81.096 272.375 C 86.669 274.417 115.772 285.999 121.279 288.017 C 126.787 290.036 126.998 291.698 121.347 294.644" fill="#C6302B" style="" id="object-2"/><path d="M 121.349 287.964 C 115.697 290.911 86.419 302.948 80.186 306.199 C 73.954 309.448 70.49 309.416 65.568 307.062 C 60.643 304.71 29.486 292.123 23.874 289.44 C 21.07 288.1 19.594 286.97 19.594 285.901 L 19.594 275.194 C 19.594 275.194 60.156 266.365 66.705 264.016 C 73.253 261.666 75.525 261.582 81.096 263.623 C 86.67 265.664 119.991 271.675 125.498 273.692 L 125.496 284.247 C 125.497 285.304 124.226 286.466 121.349 287.964" style="fill: rgb(255, 66, 53);" id="object-3"/><path d="M 121.347 277.323 C 115.696 280.268 86.418 292.306 80.185 295.557 C 73.953 298.806 70.49 298.774 65.568 296.42 C 60.643 294.068 29.487 281.48 23.875 278.799 C 18.264 276.117 18.145 274.27 23.659 272.111 C 29.171 269.953 60.156 257.796 66.705 255.446 C 73.253 253.098 75.525 253.012 81.096 255.055 C 86.669 257.095 115.772 268.678 121.279 270.696 C 126.787 272.714 126.998 274.378 121.347 277.323" fill="#C6302B" style="" id="object-4"/><path d="M 121.349 270.002 C 115.697 272.948 86.419 284.986 80.186 288.236 C 73.954 291.485 70.49 291.454 65.568 289.1 C 60.643 286.747 29.486 274.16 23.874 271.479 C 21.07 270.137 19.594 269.006 19.594 267.938 L 19.594 257.232 C 19.594 257.232 60.156 248.402 66.705 246.054 C 73.253 243.704 75.525 243.619 81.096 245.66 C 86.67 247.703 119.991 253.712 125.498 255.73 L 125.496 266.284 C 125.497 267.342 124.226 268.502 121.349 270.002" style="fill: rgb(255, 66, 53);" id="object-5"/><path d="M 121.347 259.361 C 115.696 262.306 86.418 274.344 80.185 277.593 C 73.953 280.842 70.49 280.811 65.568 278.457 C 60.643 276.103 29.487 263.518 23.876 260.836 C 18.264 258.155 18.146 256.307 23.659 254.148 C 29.171 251.99 60.156 239.834 66.705 237.485 C 73.253 235.135 75.525 235.051 81.096 237.092 C 86.669 239.133 115.772 250.717 121.279 252.734 C 126.787 254.751 126.998 256.414 121.347 259.361" style="fill: rgb(255, 66, 53);" id="object-6"/><path d="M 85.488 248.947 L 76.383 249.892 L 74.344 254.796 L 71.051 249.324 L 60.538 248.378 L 68.384 245.549 L 66.029 241.206 L 73.375 244.079 L 80.298 241.812 L 78.428 246.302 L 85.488 248.947 M 73.801 272.741 L 56.808 265.693 L 81.157 261.956 L 73.801 272.741 M 50.241 251.673 C 57.429 251.673 63.256 253.932 63.256 256.717 C 63.256 259.504 57.429 261.762 50.241 261.762 C 43.053 261.762 37.226 259.504 37.226 256.717 C 37.226 253.932 43.053 251.673 50.241 251.673" style="fill: rgb(255, 255, 255);" id="object-7"/><path d="M 96.248 250.287 L 110.66 255.982 L 96.26 261.672 L 96.248 250.286" fill="#621B1C" style="" id="object-8"/><path d="M 80.305 256.594 L 96.248 250.287 L 96.26 261.672 L 94.698 262.283 L 80.305 256.594" fill="#9A2928" style="" id="object-9"/></g></g></svg>